<?xml version="1.0" encoding="utf-8"?>
<!-- Generator: Adobe Illustrator 19.2.1, SVG Export Plug-In . SVG Version: 6.00 Build 0)  -->
<svg version="1.1" id="бургер_меню_" xmlns="http://www.w3.org/2000/svg" xmlns:xlink="http://www.w3.org/1999/xlink"
	 x="0px" y="0px" viewBox="0 0 18 18" enable-background="new 0 0 18 18" xml:space="preserve">
<path id="меню" d="M0.3,16.4L16.4,0.3c0.4-0.4,1-0.4,1.3,0l0,0c0.4,0.4,0.4,1,0,1.3L1.6,17.7c-0.4,0.4-1,0.4-1.3,0l0,0
	C-0.1,17.4-0.1,16.8,0.3,16.4z"/>
<path id="меню_copy_2" d="M16.4,17.7L0.3,1.6c-0.4-0.4-0.4-1,0-1.3l0,0c0.4-0.4,1-0.4,1.3,0l16.1,16.1c0.4,0.4,0.4,1,0,1.3l0,0
	C17.4,18.1,16.8,18.1,16.4,17.7z"/>
</svg>
