<?xml version="1.0" encoding="utf-8"?>
<!-- Generator: Adobe Illustrator 19.2.1, SVG Export Plug-In . SVG Version: 6.00 Build 0)  -->
<svg version="1.1" id="Слой_1" xmlns="http://www.w3.org/2000/svg" xmlns:xlink="http://www.w3.org/1999/xlink" x="0px" y="0px"
	 viewBox="0 0 184 110" style="enable-background:new 0 0 184 110;" xml:space="preserve">
<style type="text/css">
	.st0{fill:#FFFFFF;}
	.st1{enable-background:new    ;}
</style>
<g>
	<path d="M180,111c-54,0-108,0-162,0c-1.7-1.5-3.5-3.1-5-4.4c-0.2-8,1.5-15.2,2.9-22.6c1.4-7.2,4.5-13.9,6.8-20.8
		c-0.3-0.3-0.5-0.6-0.8-0.8c-0.4-0.2-0.9-0.3-1.3-0.5c-4.3-2.1-8.3-4.6-11.5-8.2C5.4,49.6,2.7,45,1.8,39.4c0-0.2-0.5-0.2-0.8-0.4
		c0-4.3,0-8.7,0-13c0.3-0.3,1-0.6,0.9-0.8C1.5,23.5,2.3,22,3,20.7c2-4.1,4.4-8,7.9-11.2c4.3-3.9,9-6.7,14.7-7.7
		c0.2,0,0.2-0.5,0.4-0.8c4.7,0,9.3,0,14,0c0.1,0.3,0.2,0.8,0.4,0.8c8.8,2.1,15.8,6.6,20.1,15c0.9,1.8,2.5,3.1,2.7,5.4
		c0,0.7,1.1,1.4,1.6,1.9c10.6-4.2,21.1-5.8,32.2-5c0-2.1,0-3.9,0-6.3c-0.7-0.6-1.9-1.5-2.8-2.3C94,7.3,94,4.4,96.5,2.2
		C97.1,1.5,98.8,2.9,99,1c1,0,2,0,3,0c1.2,1,2.6,1.8,3.4,3s1.1,2.9,1.6,4.3c-2,3.2-3.9,6.5-2.7,10.6c6.5,0,12.7,1.4,18.9,3
		c9.5,2.4,16.5,5.7,23.3,10.1c5.7,3.6,10.5,8.2,15.1,13.1c3.7,3.9,6.9,8.3,9.4,13.1c4.3,8,8.9,16,10.1,25.3c2,1.2,0.3,3.6,1.9,5.3
		c0.9,1,0.1,3.2,1,5c0.8,1.6,0.1,3.9,0.2,5.9c0,0.4,0.6,0.9,1,1.3c0,1.7,0,3.3,0,5C183.3,107.7,181.7,109.3,180,111z M65,31.4
		c0.3,9.5-3.2,17.6-10.1,24.1c-6.9,6.6-15.3,9.3-25,8.4c-6.1,12.8-9.8,25.9-10,39.9c12.6,0,24.7,0,37,0c0-14.6,0-29,0-43.1
		c1-1.2,1.8-2,2.7-3c9.7,0,19.5,0,29.3,0c-4.3-1.7-6.8-5.4-9.9-8.3c-0.4-2.1-0.3-4.3-1.2-6.1c-1.9-3.5-0.4-6,1.5-8.3
		c3.3,0.4,6.3,0.8,9,1.1c5.3,2,9.6,4.9,12.1,9.9c3.5-4.4,8.4-5.4,12.8-6.1c2.8,3.8,1.9,7.3,0.5,10.8s-4.4,5.2-8.6,7.2
		c11.4,0,21.5,0,30.9,0c1.4,1.1,2.3,1.8,3,2.4c0,3.3,0,6.3,0,9.3c0,2.8-0.1,5.7,0,8.5c0.2,2.8-0.8,5.8,0.8,8.5
		c-1.7,2.6-0.6,5.4-0.8,8.2c-0.2,3,0,5.9,0,9c13.1,0,26,0,39,0c0.4-5.7-1.5-10.9-2.2-16.3c-0.4-3.1-1.6-6.2-2.8-9.3
		c-1.1-3-2.1-6.1-3.4-9.1c-2.8-6.7-6.7-12.8-11.4-18.2c-7.9-9.4-17.7-16.4-29.4-20.6c-9-3.2-18.3-4.9-27.8-5.2
		c-4.8-0.2-9.7-0.1-14.6,0.7c-4.5,0.7-9.1,1.3-13.6,2.3C70.1,28.6,67.4,29.3,65,31.4z M40.4,8.2c-1.5-0.6-3.2,0-5-1
		c-1.7-0.9-4.3,0.2-6.5,0.6c-3.8,0.7-7.1,1.7-10.4,4c-4.6,3.3-7.9,7-9.5,12.5C6.6,32.6,6.5,33,8.8,40.2c0.6,2,1.4,3.7,2.4,5.5
		c2.2,3.7,5.3,6.6,8.9,8.6c4.6,2.6,9.7,3.8,15,3.5c1.6-1.6,3.7-0.7,5.4-1.2C51.4,52.3,58.1,45,58.1,32.5S51.3,12.7,40.4,8.2z
		 M63,78.2c2.2,3,4.1,5.8,7.3,7.7c4.3,2.5,10.1,2.7,14.3,0c2.4-1.5,4.1-3.6,6.3-5.3c3.7-2.9,7.3-6.3,11-5.8c5.6,1.6,8.1,4.8,11,7.6
		c3.7,3.6,7.7,6.4,13.2,5.5c0.8-0.1,1.6,0,2.4,0c1.6-1.2,3.1-2.4,4.3-3.3c0-6.8,0-13.1,0-18.5c-0.8-2.6-2.2-2.2-3.5-2.2
		c-21.7,0-43.3,0-64.9,0c-0.6,0.6-1,1-1.5,1.5C63,69.8,63,74.2,63,78.2z M132.8,101.9c0-3.2,0-6,0-8.8c-3.8,1.8-7.7,2.7-11.6,1.5
		c-4.8-1.5-9.4-3.6-12.8-7.7c-1.5-1.8-3.2-3.4-4.7-4.9c-1.5,0-2.8,0-3.9,0c-2.3,1.9-4.6,3.4-6.5,5.4c-2.6,2.8-5.6,4.7-9.1,5.9
		c-2.3,0.8-4.8,2.1-7.3,1.6c-3.5-0.7-7-1.4-10-3.6c-1.1-0.8-2.4-1.5-3.7-2.4c0,4.6,0,8.7,0,12.9C86.4,101.9,109.5,101.9,132.8,101.9
		z M83,40.9c0,8.8,6.2,11,13.2,12.9c-0.4-2.1-0.8-4.2-1.1-6.1C92,43.7,88.2,41.5,83,40.9z M109.7,46.6c-3.7,1-4.6,3-5.7,5.6
		C106.8,51.4,108.1,49.6,109.7,46.6z M100.7,9c0-0.7,0-1.3,0-2.1C100,7,99.6,7.1,98.9,7.2C99,7.9,99.2,8.4,99.3,9
		C99.8,9,100.2,9,100.7,9z"/>
	<path class="st0" d="M98.8,7.2"/>
	<path class="st0" d="M100.7,9"/>
	<path d="M137.1,46.7c-0.1-1.6-0.7-3.3,1.7-4.6c2.6-0.9,5,1.1,7.2,2.6c8.9,6.5,15.7,14.7,20.2,25c2.3,5.3,4,10.7,5.7,16.1
		c0.1,0.5,0,1,0,1.8c-0.8,0.7-1.7,1.6-2.6,2.4c-1.7,0.1-2.9-0.3-3.4-2.1c-0.7-2.7-1.6-5.3-2.5-8c-2.2-6.5-5.2-12.5-9.1-18.2
		c-4.1-5.9-9.4-10.4-15.7-13.8C138,47.7,137.6,47.1,137.1,46.7z"/>
	<path d="M132.6,41.9c-1.4,0-2.8,0-4.8,0c-0.4-1.3-0.7-2.6-1.1-4.2c1.1-0.9,2.1-1.6,3.6-2.7c0.7,0.3,2.1,0.7,3.6,1.2
		c0,1.5,0,3.1,0,4.5C133.4,41.1,133,41.5,132.6,41.9z"/>
	<path d="M16.1,42.8c0-0.8,0-1.5,0-2.4c3.7-4,8.7-7.5,9.1-13.9c-1-0.5-1.8-0.9-3-1.5c-0.8,0.9-1.8,2-2.8,3.2
		c-1.2-0.6-2.3-1.2-3.4-1.7c4.2-6.7,7.5-7.2,12.9-2.2c0,1.8,0,3.8,0,5.8c-0.7,1.4-1.2,3.1-2.2,4.5s-2.5,2.5-4.3,4.1
		c2.8,0,4.9,0,7.4,0c0.1,1.4,0.2,2.6,0.3,4C25.4,42.8,21,42.8,16.1,42.8z"/>
	<path d="M46.2,42.9c-1.6,0-2.7,0-4,0c0-1.5,0-3,0-4.8c-3.4,0-6.6,0-10.4,0c0.4-1.4,0.6-2.5,1.1-3.4c2.4-4.2,4.8-8.3,7.3-12.6
		c1.6,0,3.2,0,4.9,0c-2.4,3.9-4.6,7.7-7,11.7c1.3,0,2.5,0,3.9,0c0-1.5,0-3,0-4.7c1.5,0,2.6,0,4,0c0,1.5,0,3.1,0,4.7
		c1.1,0.1,1.9,0.2,2.9,0.3c0,1.2,0,2.4,0,3.7c-0.9,0.1-1.7,0.2-2.6,0.3C46.2,39.6,46.2,41,46.2,42.9z"/>
</g>
<path class="st1" d="M0,0"/>
</svg>
