<?xml version="1.0" encoding="utf-8"?>
<!-- Generator: Adobe Illustrator 19.2.1, SVG Export Plug-In . SVG Version: 6.00 Build 0)  -->
<svg version="1.1" id="Слой_1" xmlns="http://www.w3.org/2000/svg" xmlns:xlink="http://www.w3.org/1999/xlink" x="0px" y="0px"
	 viewBox="0 0 626 514.4" enable-background="new 0 0 626 514.4" xml:space="preserve">
	<path d="M613,65.4c-4.9-3.4-11.4-3.2-16.1,0.3c-3.3,2.5-8.2,4.6-13.9,6.5
		c18.8-23.3,19.1-38.9,18.8-42.8c-0.4-5-3.4-9.4-7.9-11.5c-4.5-2.1-9.9-1.7-14,1.3c-25.7,18.4-51.3,22.4-66.3,22.9
		C489.1,19.4,457.6,7,424.1,7c-72.5,0-131.5,59-131.5,131.5c0,5.2,0.3,10.5,0.9,15.7c-121-3-219.1-117-220.1-118.2
		c-2.9-3.4-7.3-5.3-11.8-4.9c-4.5,0.4-8.5,2.9-10.8,6.8c-30.8,52.6-18.2,102.5,2.9,137.4c-3.9-2.1-8.7-2.2-12.7-0.2
		c-4.6,2.3-7.6,7-7.7,12.2c-0.9,55.3,24.4,88.4,49.8,107.7c-1.9,0.8-3.6,1.9-5,3.5c-3.3,3.6-4.5,8.8-3,13.5
		c17.7,57.1,59.3,78.5,88.5,86.6c-33.5,23.6-74.9,29.1-106.4,29.1c-20.1,0-33.9-2.4-34.1-2.4c-6.3-1.1-12.6,2.3-15.1,8.1
		c-2.6,5.9-0.7,12.7,4.4,16.6c63.1,47.5,139.4,57.4,192.3,57.4c41.8,0,70.8-6.1,72.3-6.4C548.4,437.6,558.7,194.4,558.2,150
		c50.9-46.7,59-65,60.2-69.5C620.1,74.8,617.8,68.7,613,65.4 M534.9,133.8c-3.1,2.9-4.8,7-4.5,11.2c0.2,2.6,15,264.8-259.4,328.9
		c-0.3,0.1-27.6,5.8-66.2,5.8c-36,0-83.7-4.9-129.1-24.9c41.6-2.7,92.7-15.4,129.4-56.1c3.7-4.1,4.6-9.9,2.3-14.9
		c-2.2-5-7.2-8.2-12.7-8.2c-2.6,0-57.2-0.7-84.5-51.4c12.6,0.4,24.1-1.5,32.6-5.3c5.4-2.5,8.7-8.2,8-14.1c-0.6-6-5-10.8-10.9-12.1
		c-3-0.6-65.8-15-77.1-81.2c9.8,3.8,21.8,6.4,33.4,4.7c5.4-0.8,9.8-4.7,11.3-9.9c1.5-5.2-0.2-10.9-4.3-14.4
		c-2.8-2.4-62.7-54.4-36.7-122.6C101.4,104.6,196.4,188,311,181.6c4.1-0.2,8-2.3,10.4-5.7c2.4-3.3,3.3-7.6,2.2-11.6
		c-2.2-8.4-3.2-17.1-3.2-25.8c0-57.2,46.5-103.7,103.7-103.7c28,0,54.3,11,73.9,31c2.6,2.6,6,4.1,9.7,4.1l2.1,0
		c10.2,0,26.2-1.2,44.5-7.1c-5.9,6.2-13.5,13.2-23.4,20.8c-4.9,3.8-6.7,10.3-4.5,16c2.2,5.7,8,9.3,14,8.8c2.2-0.2,12.1-1,24.3-3.2
		C557.2,113,547.4,122.5,534.9,133.8"/>
	<path d="M613,65.4
		c-4.9-3.4-11.4-3.2-16.1,0.3c-3.3,2.5-8.2,4.6-13.9,6.5c18.8-23.3,19.1-38.9,18.8-42.8c-0.4-5-3.4-9.4-7.9-11.5
		c-4.5-2.1-9.9-1.7-14,1.3c-25.7,18.4-51.3,22.4-66.3,22.9C489.1,19.4,457.6,7,424.1,7c-72.5,0-131.5,59-131.5,131.5
		c0,5.2,0.3,10.5,0.9,15.7c-121-3-219.1-117-220.1-118.2c-2.9-3.4-7.3-5.3-11.8-4.9c-4.5,0.4-8.5,2.9-10.8,6.8
		c-30.8,52.6-18.2,102.5,2.9,137.4c-3.9-2.1-8.7-2.2-12.7-0.2c-4.6,2.3-7.6,7-7.7,12.2c-0.9,55.3,24.4,88.4,49.8,107.7
		c-1.9,0.8-3.6,1.9-5,3.5c-3.3,3.6-4.5,8.8-3,13.5c17.7,57.1,59.3,78.5,88.5,86.6c-33.5,23.6-74.9,29.1-106.4,29.1
		c-20.1,0-33.9-2.4-34.1-2.4c-6.3-1.1-12.6,2.3-15.1,8.1c-2.6,5.9-0.7,12.7,4.4,16.6c63.1,47.5,139.4,57.4,192.3,57.4
		c41.8,0,70.8-6.1,72.3-6.4C548.4,437.6,558.7,194.4,558.2,150c50.9-46.7,59-65,60.2-69.5C620.1,74.8,617.8,68.7,613,65.4z
		 M534.9,133.8c-3.1,2.9-4.8,7-4.5,11.2c0.2,2.6,15,264.8-259.4,328.9c-0.3,0.1-27.6,5.8-66.2,5.8c-36,0-83.7-4.9-129.1-24.9
		c41.6-2.7,92.7-15.4,129.4-56.1c3.7-4.1,4.6-9.9,2.3-14.9c-2.2-5-7.2-8.2-12.7-8.2c-2.6,0-57.2-0.7-84.5-51.4
		c12.6,0.4,24.1-1.5,32.6-5.3c5.4-2.5,8.7-8.2,8-14.1c-0.6-6-5-10.8-10.9-12.1c-3-0.6-65.8-15-77.1-81.2c9.8,3.8,21.8,6.4,33.4,4.7
		c5.4-0.8,9.8-4.7,11.3-9.9c1.5-5.2-0.2-10.9-4.3-14.4c-2.8-2.4-62.7-54.4-36.7-122.6C101.4,104.6,196.4,188,311,181.6
		c4.1-0.2,8-2.3,10.4-5.7c2.4-3.3,3.3-7.6,2.2-11.6c-2.2-8.4-3.2-17.1-3.2-25.8c0-57.2,46.5-103.7,103.7-103.7c28,0,54.3,11,73.9,31
		c2.6,2.6,6,4.1,9.7,4.1l2.1,0c10.2,0,26.2-1.2,44.5-7.1c-5.9,6.2-13.5,13.2-23.4,20.8c-4.9,3.8-6.7,10.3-4.5,16
		c2.2,5.7,8,9.3,14,8.8c2.2-0.2,12.1-1,24.3-3.2C557.2,113,547.4,122.5,534.9,133.8z"/>
</svg>
