<?xml version="1.0" encoding="utf-8"?>
<!-- Generator: Adobe Illustrator 19.2.1, SVG Export Plug-In . SVG Version: 6.00 Build 0)  -->
<svg version="1.1" id="Слой_1" xmlns="http://www.w3.org/2000/svg" xmlns:xlink="http://www.w3.org/1999/xlink" x="0px" y="0px"
	 viewBox="0 0 184 110" enable-background="new 0 0 184 110" xml:space="preserve">
<g>
	<path d="M180,111c-54,0-108,0-162,0c-1.7-1.5-3.5-3.1-5-4.4c-0.2-8,1.5-15.2,2.9-22.6c1.4-7.2,4.5-13.9,6.8-20.8
		c-0.3-0.3-0.5-0.6-0.8-0.8c-0.4-0.2-0.9-0.3-1.3-0.5c-4.3-2.1-8.3-4.6-11.5-8.2C5.4,49.6,2.7,45,1.8,39.4c0-0.2-0.5-0.2-0.8-0.4
		c0-4.3,0-8.7,0-13c0.3-0.3,1-0.6,0.9-0.8c-0.4-1.7,0.4-3.2,1.1-4.5c2-4.1,4.4-8,7.9-11.2c4.3-3.9,9-6.7,14.7-7.7
		c0.2,0,0.2-0.5,0.4-0.8c4.7,0,9.3,0,14,0c0.1,0.3,0.2,0.8,0.4,0.8c8.8,2.1,15.8,6.6,20.1,15c0.9,1.8,2.5,3.1,2.7,5.4
		c0,0.7,1.1,1.4,1.6,1.9c10.6-4.2,21.1-5.8,32.2-5c0-2.1,0-3.9,0-6.3c-0.7-0.6-1.9-1.5-2.8-2.3c-0.2-3.2-0.2-6.1,2.3-8.3
		C97.1,1.5,98.8,2.9,99,1c1,0,2,0,3,0c1.2,1,2.6,1.8,3.4,3c0.8,1.2,1.1,2.9,1.6,4.3c-2,3.2-3.9,6.5-2.7,10.6c6.5,0,12.7,1.4,18.9,3
		c9.5,2.4,16.5,5.7,23.3,10.1c5.7,3.6,10.5,8.2,15.1,13.1c3.7,3.9,6.9,8.3,9.4,13.1c4.3,8,8.9,16,10.1,25.3c2,1.2,0.3,3.6,1.9,5.3
		c0.9,1,0.1,3.2,1,5c0.8,1.6,0.1,3.9,0.2,5.9c0,0.4,0.6,0.9,1,1.3c0,1.7,0,3.3,0,5C183.3,107.7,181.7,109.3,180,111z M65,31.4
		c0.3,9.5-3.2,17.6-10.1,24.1c-6.9,6.6-15.3,9.3-25,8.4c-6.1,12.8-9.8,25.9-10,39.9c12.6,0,24.7,0,37,0c0-14.6,0-29,0-43.1
		c1-1.2,1.8-2,2.7-3c9.7,0,19.5,0,29.3,0c-4.3-1.7-6.8-5.4-9.9-8.3c-0.4-2.1-0.3-4.3-1.2-6.1c-1.9-3.5-0.4-6,1.5-8.3
		c3.3,0.4,6.3,0.8,9,1.1c5.3,2,9.6,4.9,12.1,9.9c3.5-4.4,8.4-5.4,12.8-6.1c2.8,3.8,1.9,7.3,0.5,10.8c-1.4,3.5-4.4,5.2-8.6,7.2
		c11.4,0,21.5,0,30.9,0c1.4,1.1,2.3,1.8,3,2.4c0,3.3,0,6.3,0,9.3c0,2.8-0.1,5.7,0,8.5c0.2,2.8-0.8,5.8,0.8,8.5
		c-1.7,2.6-0.6,5.4-0.8,8.2c-0.2,3,0,5.9,0,9c13.1,0,26,0,39,0c0.4-5.7-1.5-10.9-2.2-16.3c-0.4-3.1-1.6-6.2-2.8-9.3
		c-1.1-3-2.1-6.1-3.4-9.1c-2.8-6.7-6.7-12.8-11.4-18.2c-7.9-9.4-17.7-16.4-29.4-20.6c-9-3.2-18.3-4.9-27.8-5.2
		c-4.8-0.2-9.7-0.1-14.6,0.7c-4.5,0.7-9.1,1.3-13.6,2.3C70.1,28.6,67.4,29.3,65,31.4z M40.4,8.2c-1.5-0.6-3.2,0-5-1
		c-1.7-0.9-4.3,0.2-6.5,0.6c-3.8,0.7-7.1,1.7-10.4,4c-4.6,3.3-7.9,7-9.5,12.5c-2.4,8.3-2.5,8.7-0.2,15.9c0.6,2,1.4,3.7,2.4,5.5
		c2.2,3.7,5.3,6.6,8.9,8.6c4.6,2.6,9.7,3.8,15,3.5c1.6-1.6,3.7-0.7,5.4-1.2C51.4,52.3,58.1,45,58.1,32.5C58.1,20,51.3,12.7,40.4,8.2
		z M63,78.2c2.2,3,4.1,5.8,7.3,7.7c4.3,2.5,10.1,2.7,14.3,0c2.4-1.5,4.1-3.6,6.3-5.3c3.7-2.9,7.3-6.3,11-5.8c5.6,1.6,8.1,4.8,11,7.6
		c3.7,3.6,7.7,6.4,13.2,5.5c0.8-0.1,1.6,0,2.4,0c1.6-1.2,3.1-2.4,4.3-3.3c0-6.8,0-13.1,0-18.5c-0.8-2.6-2.2-2.2-3.5-2.2
		c-21.7,0-43.3,0-64.9,0c-0.6,0.6-1,1-1.5,1.5C63,69.8,63,74.2,63,78.2z M132.8,101.9c0-3.2,0-6,0-8.8c-3.8,1.8-7.7,2.7-11.6,1.5
		c-4.8-1.5-9.4-3.6-12.8-7.7c-1.5-1.8-3.2-3.4-4.7-4.9c-1.5,0-2.8,0-3.9,0c-2.3,1.9-4.6,3.4-6.5,5.4c-2.6,2.8-5.6,4.7-9.1,5.9
		c-2.3,0.8-4.8,2.1-7.3,1.6c-3.5-0.7-7-1.4-10-3.6c-1.1-0.8-2.4-1.5-3.7-2.4c0,4.6,0,8.7,0,12.9C86.4,101.9,109.5,101.9,132.8,101.9
		z M83,40.9c0,8.8,6.2,11,13.2,12.9c-0.4-2.1-0.8-4.2-1.1-6.1C92,43.7,88.2,41.5,83,40.9z M109.7,46.6c-3.7,1-4.6,3-5.7,5.6
		C106.8,51.4,108.1,49.6,109.7,46.6z M100.7,9c0-0.7,0-1.3,0-2.1C100,7,99.6,7.1,98.9,7.2c0.1,0.7,0.3,1.2,0.4,1.8
		C99.8,9,100.2,9,100.7,9z"/>
	<path fill="#FFFFFF" d="M185,101c-0.3-0.4-0.9-0.8-1-1.3c-0.1-2,0.6-4.3-0.2-5.9c-0.8-1.8,0-4-1-5c-1.5-1.7,0.2-4.1-1.9-5.3
		c-1.2-9.3-5.8-17.3-10.1-25.3c-2.5-4.7-5.7-9.1-9.4-13.1c-4.6-4.9-9.4-9.5-15.1-13.1c-6.9-4.3-13.9-7.7-23.3-10.1
		c-6.2-1.5-12.3-3-18.9-3c-1.2-4.1,0.7-7.3,2.7-10.6c-0.5-1.5-0.8-3.1-1.6-4.3c-0.8-1.2-2.2-2-3.4-3c27.7,0,55.3,0,83,0
		C185,34.3,185,67.7,185,101z"/>
	<path fill="#FFFFFF" d="M1,39c0.3,0.1,0.8,0.2,0.8,0.4C2.7,45,5.4,49.6,9.2,53.8c3.3,3.7,7.3,6.1,11.5,8.2c0.4,0.2,0.9,0.3,1.3,0.5
		c0.3,0.2,0.5,0.5,0.8,0.8C20.4,70.1,17.3,76.8,16,84c-1.4,7.3-3.2,14.6-2.9,22.6c1.5,1.3,3.3,2.9,5,4.4c-5.7,0-11.3,0-17,0
		C1,87,1,63,1,39z"/>
	<path fill="#FFFFFF" d="M99,1c-0.2,1.9-1.9,0.5-2.7,1.2c-2.5,2.2-2.4,5.1-2.3,8.3c1,0.8,2.1,1.7,2.8,2.3c0,2.5,0,4.2,0,6.3
		c-11.1-0.8-21.6,0.8-32.2,5c-0.5-0.6-1.5-1.2-1.6-1.9c-0.1-2.3-1.8-3.6-2.7-5.4c-4.3-8.4-11.2-12.9-20.1-15c-0.2,0-0.2-0.5-0.4-0.8
		C59.7,1,79.3,1,99,1z"/>
	<path fill="#FFFFFF" d="M26,1c-0.1,0.3-0.2,0.8-0.4,0.8c-5.8,0.9-10.5,3.7-14.7,7.7C7.4,12.7,5,16.5,3,20.7
		c-0.7,1.4-1.5,2.8-1.1,4.5C2,25.4,1.3,25.7,1,26C1,17.7,1,9.3,1,1C9.3,1,17.7,1,26,1z"/>
	<path fill="#FFFFFF" d="M180,111c1.7-1.7,3.3-3.3,5-5c0,1.7,0,3.3,0,5C183.3,111,181.7,111,180,111z"/>
	<path fill="#FFFFFF" d="M65,31.4c2.3-2,5.1-2.8,7.8-3.4c4.5-0.9,9.1-1.5,13.6-2.3c4.9-0.8,9.8-0.8,14.6-0.7
		c9.5,0.4,18.8,2.1,27.8,5.2c11.7,4.1,21.5,11.2,29.4,20.6c4.6,5.5,8.5,11.6,11.4,18.2c1.3,3,2.3,6.1,3.4,9.1c1.1,3,2.4,6.2,2.8,9.3
		c0.7,5.4,2.6,10.6,2.2,16.3c-12.9,0-25.8,0-39,0c0-3-0.2-6,0-9c0.2-2.7-0.9-5.6,0.8-8.2c-1.6-2.7-0.6-5.7-0.8-8.5
		c-0.2-2.8,0-5.7,0-8.5c0-3,0-6,0-9.3c-0.7-0.6-1.6-1.3-3-2.4c-9.4,0-19.6,0-30.9,0c4.2-2,7.2-3.7,8.6-7.2c1.4-3.5,2.3-6.9-0.5-10.8
		c-4.4,0.7-9.2,1.7-12.8,6.1c-2.5-5-6.8-8-12.1-9.9c-2.7-0.3-5.7-0.7-9-1.1c-1.9,2.3-3.4,4.8-1.5,8.3c0.9,1.7,0.8,4,1.2,6.1
		c3.1,2.8,5.5,6.6,9.9,8.3c-9.8,0-19.5,0-29.3,0c-0.9,1-1.7,1.8-2.7,3c0,14,0,28.5,0,43.1c-12.3,0-24.4,0-37,0
		c0.1-14,3.8-27.1,10-39.9c9.7,0.9,18.1-1.8,25-8.4C61.8,48.9,65.3,40.9,65,31.4z M137.1,46.7c0.5,0.5,0.9,1,1.5,1.3
		c6.3,3.3,11.6,7.8,15.7,13.8c3.9,5.7,6.9,11.7,9.1,18.2c0.9,2.6,1.8,5.3,2.5,8c0.5,1.8,1.7,2.2,3.4,2.1c0.9-0.8,1.8-1.7,2.6-2.4
		c0-0.8,0.1-1.4,0-1.8c-1.7-5.4-3.4-10.9-5.7-16.1c-4.5-10.2-11.3-18.5-20.2-25c-2.1-1.6-4.6-3.5-7.2-2.6
		C136.4,43.4,137,45.1,137.1,46.7z M132.6,41.9c0.4-0.4,0.8-0.8,1.2-1.2c0-1.5,0-3,0-4.5c-1.5-0.5-2.8-1-3.6-1.2
		c-1.4,1.1-2.4,1.9-3.6,2.7c0.4,1.6,0.8,2.9,1.1,4.2C129.8,41.9,131.2,41.9,132.6,41.9z"/>
	<path fill="#FFFFFF" d="M40.4,8.2C51.3,12.7,58.1,20,58.1,32.5c0,12.5-6.7,19.8-17.6,24.4c-1.7,0.5-3.8-0.4-5.4,1.2
		c-5.3,0.3-10.4-0.9-15-3.5c-3.6-2.1-6.7-4.9-8.9-8.6c-1.1-1.8-1.8-3.5-2.4-5.5c-2.3-7.3-2.2-7.7,0.2-15.9c1.6-5.5,5-9.3,9.5-12.5
		c3.3-2.3,6.6-3.3,10.4-4c2.2-0.4,4.8-1.5,6.5-0.6C37.2,8.2,38.9,7.6,40.4,8.2z M16.1,42.8c4.9,0,9.3,0,14,0c-0.1-1.4-0.2-2.6-0.3-4
		c-2.5,0-4.6,0-7.4,0c1.8-1.7,3.3-2.7,4.3-4.1c1-1.3,1.5-3,2.2-4.5c0-2,0-4,0-5.8c-5.4-5.1-8.7-4.5-12.9,2.2
		c1.1,0.5,2.2,1.1,3.4,1.7c1-1.2,2-2.3,2.8-3.2c1.1,0.6,2,1,3,1.5c-0.4,6.4-5.4,9.9-9.1,13.9C16.1,41.4,16.1,42,16.1,42.8z
		 M46.2,42.9c0-1.9,0-3.3,0-4.8c1-0.1,1.7-0.2,2.6-0.3c0-1.3,0-2.5,0-3.7c-1-0.1-1.8-0.2-2.9-0.3c0-1.6,0-3.2,0-4.7
		c-1.5,0-2.6,0-4,0c0,1.7,0,3.3,0,4.7c-1.5,0-2.6,0-3.9,0c2.4-4,4.7-7.7,7-11.7c-1.8,0-3.3,0-4.9,0c-2.5,4.3-4.9,8.4-7.3,12.6
		c-0.5,0.9-0.6,1.9-1.1,3.4c3.8,0,7,0,10.4,0c0,1.8,0,3.2,0,4.8C43.4,42.9,44.5,42.9,46.2,42.9z"/>
	<path fill="#FFFFFF" d="M63,78.2c0-4.1,0-8.4,0-12.7c0.5-0.5,0.9-0.9,1.5-1.5c21.6,0,43.2,0,64.9,0c1.3,0,2.8-0.3,3.5,2.2
		c0,5.4,0,11.7,0,18.5c-1.2,0.9-2.7,2.1-4.3,3.3c-0.7,0-1.6-0.1-2.4,0c-5.5,0.9-9.5-1.9-13.2-5.5c-2.9-2.8-5.4-6-11-7.6
		c-3.7-0.5-7.3,2.9-11,5.8c-2.2,1.7-3.9,3.8-6.3,5.3c-4.2,2.7-10,2.5-14.3,0C67.1,84.1,65.2,81.2,63,78.2z"/>
	<path fill="#FFFFFF" d="M132.8,101.9c-23.3,0-46.4,0-69.7,0c0-4.2,0-8.3,0-12.9c1.3,0.8,2.5,1.5,3.7,2.4c3,2.2,6.5,2.9,10,3.6
		c2.5,0.5,4.9-0.8,7.3-1.6c3.5-1.2,6.5-3.1,9.1-5.9c1.8-2,4.2-3.5,6.5-5.4c1.1,0,2.4,0,3.9,0c1.5,1.6,3.3,3.1,4.7,4.9
		c3.4,4.1,8,6.1,12.8,7.7c3.9,1.3,7.8,0.3,11.6-1.5C132.8,95.9,132.8,98.7,132.8,101.9z"/>
	<path fill="#FFFFFF" d="M83,40.9c5.2,0.5,9,2.7,12,6.8c0.3,1.8,0.7,3.9,1.1,6.1C89.2,51.9,83,49.7,83,40.9z"/>
	<path fill="#FFFFFF" d="M109.7,46.6c-1.6,3.1-2.9,4.8-5.7,5.6C105.1,49.6,106,47.6,109.7,46.6z"/>
	<path fill="#FFFFFF" d="M100.7,9c-0.6,0-0.9,0-1.5,0c-0.1-0.5-0.2-1.1-0.4-1.8c0.6-0.1,1.1-0.2,1.8-0.4
		C100.7,7.7,100.7,8.3,100.7,9z"/>
	<path d="M137.1,46.7c-0.1-1.6-0.7-3.3,1.7-4.6c2.6-0.9,5,1.1,7.2,2.6c8.9,6.5,15.7,14.7,20.2,25c2.3,5.3,4,10.7,5.7,16.1
		c0.1,0.5,0,1,0,1.8c-0.8,0.7-1.7,1.6-2.6,2.4c-1.7,0.1-2.9-0.3-3.4-2.1c-0.7-2.7-1.6-5.3-2.5-8c-2.2-6.5-5.2-12.5-9.1-18.2
		c-4.1-5.9-9.4-10.4-15.7-13.8C138,47.7,137.6,47.1,137.1,46.7z"/>
	<path d="M132.6,41.9c-1.4,0-2.8,0-4.8,0c-0.4-1.3-0.7-2.6-1.1-4.2c1.1-0.9,2.1-1.6,3.6-2.7c0.7,0.3,2.1,0.7,3.6,1.2
		c0,1.5,0,3.1,0,4.5C133.4,41.1,133,41.5,132.6,41.9z"/>
	<path d="M16.1,42.8c0-0.8,0-1.5,0-2.4c3.7-4,8.7-7.5,9.1-13.9c-1-0.5-1.8-0.9-3-1.5c-0.8,0.9-1.8,2-2.8,3.2
		c-1.2-0.6-2.3-1.2-3.4-1.7c4.2-6.7,7.5-7.2,12.9-2.2c0,1.8,0,3.8,0,5.8c-0.7,1.4-1.2,3.1-2.2,4.5c-1,1.4-2.5,2.5-4.3,4.1
		c2.8,0,4.9,0,7.4,0c0.1,1.4,0.2,2.6,0.3,4C25.4,42.8,21,42.8,16.1,42.8z"/>
	<path d="M46.2,42.9c-1.6,0-2.7,0-4,0c0-1.5,0-3,0-4.8c-3.4,0-6.6,0-10.4,0c0.4-1.4,0.6-2.5,1.1-3.4c2.4-4.2,4.8-8.3,7.3-12.6
		c1.6,0,3.2,0,4.9,0c-2.4,3.9-4.6,7.7-7,11.7c1.3,0,2.5,0,3.9,0c0-1.5,0-3,0-4.7c1.5,0,2.6,0,4,0c0,1.5,0,3.1,0,4.7
		c1.1,0.1,1.9,0.2,2.9,0.3c0,1.2,0,2.4,0,3.7c-0.9,0.1-1.7,0.2-2.6,0.3C46.2,39.6,46.2,41,46.2,42.9z"/>
</g>
<path fill="none" enable-background="new    " d="z"/>
</svg>
